<svg xmlns="http://www.w3.org/2000/svg" viewBox="0 0 387 182.18"><defs><style>.cls-1,.cls-5{fill:#fff;}.cls-2,.cls-3,.cls-4,.cls-6{fill:none;}.cls-2,.cls-3,.cls-4,.cls-5,.cls-6{stroke:#fff;}.cls-2,.cls-3{stroke-linecap:round;}.cls-2,.cls-3,.cls-4,.cls-5{stroke-miterlimit:10;}.cls-2{stroke-width:3px;}.cls-4,.cls-5,.cls-6{stroke-width:2px;}.cls-6{stroke-linejoin:bevel;}</style></defs><title>Fichier 7</title><g id="Calque_2" data-name="Calque 2"><g id="Calque_1-2" data-name="Calque 1"><path class="cls-1" d="M158.78,120.64c-.73,3.5-2.13,5-5.14,6.78a42,42,0,0,0,3.84,8.83l-.46.82-1-.95-.37.65-1-.82-.15.87-1-.87-.16.83-.54-.58h-.52l-.39-.47-1.7-.31c-.62-1.2-1.22-2.43-1.79-3.63-.43,1.85-.84,3.7-1.16,5.6l-.55.4-.4-1.39-1.4,1.14-.36-1.23-.47.49-.16-.38-.43.87-.53-.66,0-.57-.19-.14-.65,1.21-1.21-1.51a123.29,123.29,0,0,1,3.7-16.77l-.68-.21.9-1.26-.63-.63,1.46-.68-.69-.51.77-.56-.9-.81a24.23,24.23,0,0,1,6-1.7c2.7-.36,5.35-.31,6.67,2.51a4.93,4.93,0,0,1,1.52,3A7.43,7.43,0,0,1,158.78,120.64Zm-8.13-7.5a19,19,0,0,0-4.7,1.28l.61.52-.6.59,1.08.6-1.82.81.34.34-.64.9,1,.21-.9.8a118.69,118.69,0,0,0-3.59,16.25l.36.44.94-1.95.37,1.18.6-.63.44,1.09.55-.59.44,1.44.35-.27c.47-2.78,1.11-5.54,1.83-8.27a60.18,60.18,0,0,0,3.21,6.92l.62.11-.06-1.27,1.7,1.73.16-.86.79.82.34-.92,1.37,1.29.32-.62A43.45,43.45,0,0,1,152,126.2c3-1.76,4.47-3.29,5.17-6.76a7.82,7.82,0,0,0,.16-2.55C156.77,113.06,153.89,112.71,150.65,113.14Zm1.66,6.72a4.17,4.17,0,0,1-3.68,2.89,33.09,33.09,0,0,1,1.65-5.26,3.62,3.62,0,0,1,.79-.18c.72-.1,1.4.08,1.51.91A3.81,3.81,0,0,1,152.31,119.86Z"/><path class="cls-1" d="M168.85,118.32A94,94,0,0,0,169.3,134a9.93,9.93,0,0,0-1.12-.4l-.49.59-.8-.88-.72,1.32-.64-.73-.68.64-.87-1-1.46,1.5,0-2.27-1.15.15-1,2.61-.8-.74-.47.58-.91-.86-.74.94-.27-.61-1.34,1-.49-1.4-2.3,1.15a77.81,77.81,0,0,1,8.16-19l.86,1.36,1.15-1,.53,1.59,1.19-1.9,1.06.81,1.8-1.44c0,1,0,2,0,3.08Zm-2.75,0-.88-.7-1.55,2.47-.67-2-1,.84-.72-1.1a72.19,72.19,0,0,0-7.05,16.41l1.58-.81.27.75,1.17-2,.47,1.73.4-.49.75.69.92-2.49,3.45-.46,0,2.18.79-.81.58.66.56-2,1,1.58.47-.58,1,.39a99.45,99.45,0,0,1-.41-15.14ZM163.15,123l-.24,4.93-2.14.29a35.73,35.73,0,0,1,2.09-5.18Z"/><path class="cls-1" d="M185.05,116.46a80.12,80.12,0,0,0-3.73,16l-.57-.38-.46.6-.63-.65-.56.95-.58-.69-.19.82-.34.29-.63-1.44,0,.27-1,.9-1.29-3c-.29,1.12-.54,2.28-.8,3.4l-.61-.66-.63.6-.79-.84-.8,1.57-.45-.92-1.07,1-.63-1.25L168,134a97.6,97.6,0,0,1,4.2-18.94l.8.84.55-.78.48.78.27-1.7.92,1,.66-.77.63,2.53.27.37.36-.59.49,2.06c.4-1.47.84-2.92,1.27-4.36l1,.52,1.18-.9.17,1,.91-1.37.38.82a2.91,2.91,0,0,0,.83-.33,11.43,11.43,0,0,0,.84.82l-.45,1.34.13.36.61-.71ZM183,115.1l-.68.77-.29-.75-1.17,2.12-.28-1.9-.61.46-.68-.34a44.08,44.08,0,0,0-1.84,7.19l-.3,0-1.6-6.71-.29.48-.54-.75-.3,2.22-.91-1.54L173,117l-.55-.6a91.34,91.34,0,0,0-3.69,16l.66-.55.41.84,1.21-2.39.29,1.62.74-.42.5.53a32.2,32.2,0,0,1,1.45-5.34l.22,0,2.24,5.2.18-.13.39-1.74.64,1.11.41-.62.63.89.41-.81.54.36a80.66,80.66,0,0,1,3.66-15.68Z"/><path class="cls-1" d="M190.22,131.35l-1.87.25a10.8,10.8,0,0,1-2.95.12l.45-.69A13.78,13.78,0,0,1,183,131l.57-.86h0l-.31-.7-1.27.47a46.68,46.68,0,0,1,2.75-14.11l1,.65.08,0-.19-1.39.8-.11-.3-.86a15.32,15.32,0,0,1,3.75-.9c2.51-.34,4.49-.17,5.68,2.4a5.67,5.67,0,0,1,1.65,3.65C197.86,124,195.87,130.6,190.22,131.35Zm.89-17.71c-.46,0-.92.09-1.37.15a13,13,0,0,0-2.78.59l.38,1-1,.13.15,1.12-.8.54-.69-.45a43.76,43.76,0,0,0-2.41,12.14l1-.37.36.82,1-.13-.82,1.23a22.94,22.94,0,0,0,4.29-.36c5.77-.77,7.83-7,7.15-12.09C195.21,115.38,194,113.44,191.11,113.64Zm-2.19,12.41c-.62.08-1.24.11-1.85.19a32.21,32.21,0,0,1,1.71-8c.4-.08.78-.13,1.18-.18,1.25-.17,1.52.39,1.68,1.57C191.87,121.41,191.06,125.76,188.92,126.05Zm1.48-6.49a29.58,29.58,0,0,0-1.39,5.77c1.55-.64,2.2-4.38,2.05-5.88Z"/><path class="cls-1" d="M210.18,121.45c-.7,4-2.42,7.84-6.89,8.43a4.44,4.44,0,0,1-3.26-.6c-2.47-.32-3.66-2.48-4-4.76a11.65,11.65,0,0,1,.23-4c1.11-4.91,3.16-8.53,8.57-9.25l-.34,1.16a13.24,13.24,0,0,1,1.32.31v-1.36a5,5,0,0,1,2,1.69,3.88,3.88,0,0,0,.4.57c.19.22.44.44.63.65a6.66,6.66,0,0,1,1.41,3.41A13,13,0,0,1,210.18,121.45Zm-3.65-9,0,1.17-.82-.22.15,1.12-2.35-.66.74-.81-.55-.23.2-.76c-4.4.7-6.15,4.74-7,8.61a11.25,11.25,0,0,0-.23,3.79c.39,2.89,2,4.55,5,4.15,4.41-.59,6.08-4.41,6.76-8.33a12.31,12.31,0,0,0,.16-3.73A6.14,6.14,0,0,0,206.53,112.43ZM202,124.8c-1,.13-1.33-.77-1.43-1.55-.25-1.9.87-7,3.17-7.28.8-.11,1,.67,1.13,1.29C205.08,119.14,204.32,124.49,202,124.8Zm.2-.78c1.52-.86,2.1-4.67,2.18-6.29C202.83,119.08,202.06,122.07,202.16,124Z"/><path class="cls-1" d="M228.12,110.59a80.46,80.46,0,0,0-2.85,16.23l-.79-.44-.65,1.29-.57-1.45-1,1.6-.55-1.42-.78.89-.53-1.37-.28.42-1.39.81-.81-.82-.72.72-.8-1.09-.94.92-.32-.94c-.17.76-.31,1.54-.46,2.29l-.55-.66-.8,1.09-.23-.84-.45-.54-.91,1.51-.31-.67-1,.67-.42-1.28-1.76,1.27a126.43,126.43,0,0,1,3.58-18.5l.8.68.62-1.3.79,1.25.27-1,.72.75,1-.9s.39,1.74.63,2.72l.54-.64c.24,1.14.53,2.29.81,3.43a73.47,73.47,0,0,1,4.24-6.61l.57.74,1-1.38.61,1.55.64-.93.59.77,1.61-.79s-.27,1.45-.48,2.33l.24.32Zm-2.63-.35-.4-.5-1,1.5-.39-1.88-.82,1.17-.57-.77a59.38,59.38,0,0,0-4.78,7.91,42.51,42.51,0,0,1-1.87-6.73l-.64.74-.36-.44-.4,2.29-.9-2.5-.56,1.11-.67-.73a115.59,115.59,0,0,0-3,15.93l1.14-.81.26.46.79-1.82.57,2,.74-1,.48.59a52.42,52.42,0,0,1,1.2-5.36l.29,0a40.61,40.61,0,0,0,1.14,4.26l.67-.66.61.66c1-1.72,1.84-3.55,3-5.2l.32,0-.71,5.46,0,0,1.06-1.61.3,1.4.79-.81.54,1.37.58-1.14.74.42a83.83,83.83,0,0,1,2.72-15.72Z"/><path class="cls-1" d="M202.94,136.08a61,61,0,0,0-1.79,7.81c-.93,4.86-1.58,9.41-2.43,14.29l-.85-.87-.67,1.48-.38-.6-.21.33-.43-.63-.39.6-.29-.78-.38.62-.18-.35-.16.45-.53.29-.46-1.19-1.36.83c-.74-2.24-1.31-4.51-1.83-6.81a61.91,61.91,0,0,0-1.57,7.87l-.47.38-.35-1.2-.5,1.32-.41-.41-.57.65-.23-.68-.23.28-.25-.41-.55,1-.23-.51-.24.28-.32-.42-.73.69-.51-1-1.28.88a118.11,118.11,0,0,1,2.5-13.59,65.66,65.66,0,0,1,3.13-10.47l.64,1,1.4-2,.59,1.6.41-.87.55.66,1.17-1.24.63,2.94.54-.86,1,4.76c.5-2.38,1-4.76,1.66-7.11l.76.55.94-1.13.13.61.91-1.56.41,1.06.62-.74.25,1.14,1.62-.92c-.37,1.08-.22,1.55-.51,2.65l.1.37Zm-2.9.06-.22-.82-.47.58-.33-.85-1,1.83-.23-.95-.49.61-.46-.35a95.24,95.24,0,0,0-2.21,10.59l-.25.14-2.2-10.33-.69,1.13-.46-.57-.81,1.85-.51-2.6-1.21,1.93-.51-.75a63.59,63.59,0,0,0-2.64,9.07,122.68,122.68,0,0,0-2.3,12.18l.7-.5.26.56.84-1.53.45,1.39.5-.59.37.36.57-1.49.42,1.39.27-.23a94.54,94.54,0,0,1,2.53-11.75l.28-.12a78.71,78.71,0,0,0,2.61,11l.5-.34.46-1.42.55,1.42.34-.53.43.62.52-.83.4.33.33-.75.58,1.06c.65-3.71,1.3-7.41,2-11.1a96.9,96.9,0,0,1,2.27-10.54Z"/><path class="cls-1" d="M209.49,141a125.92,125.92,0,0,0-4.06,17l-.63-.65-.49.61-1.07-1-.82,1-.35-1-.89.86-.08-.78-.5-.53-1.72,1.42a101.49,101.49,0,0,1,4.21-19.1l.68,1.19,1.26-2,.73,1.84.82-.79.5.83,1.7-1.34-.65,2.73.33.58Zm-2.58-.1-.45-.78-1.06,1-.43-1.8-1.28,1.89-.43-.81a94.33,94.33,0,0,0-3.64,16.06l1-1,.7.7,1.1-2.13.29,2.41.59-.49.54.56a133.81,133.81,0,0,1,3.88-16.31Z"/><path class="cls-1" d="M221.48,140.69l.21,1-1.83-.22L221,143l-.83.11.08.57-.87-.41-.15.32a2.21,2.21,0,0,0-1.32-.47,3,3,0,0,0-2.32,1.56L221,144l-.29,1.27,1-.19-.13,1.84a3.55,3.55,0,0,0,.92,0l.11,0c-.57,4.49-2.25,8.66-7.28,9.33a5,5,0,0,1-3.64-.58c-2.67-.38-4-2.9-4.31-5.33-.74-5.59,3.31-12.18,9.12-13a5,5,0,0,1,5,2l-.25.12a2.68,2.68,0,0,1,1,.85Zm-1-1.58c-.88-1.08-2.59-1.26-3.88-1.09-5.48.73-9.31,7-8.61,12.23.45,3.37,2.24,5.17,5.75,4.71,4.89-.65,6.51-4.63,7.13-9a4.35,4.35,0,0,1-1-.08l.24-1.07-5.24.7-.24.25,1.89.51-1.83.81.44.41-.37.7,1.29.1a3.1,3.1,0,0,1-2.28,2.45,1.33,1.33,0,0,1-1.61-1.25c-.27-2,1.47-6.76,3.55-7.47a3.66,3.66,0,0,1,.8-.16,2.56,2.56,0,0,1,2.09.62l-.08-.59.73-.1L218,140.12l2,.23-.17-.88ZM214,148.8a11.13,11.13,0,0,0-.19,1.25,1.92,1.92,0,0,0,1.34-1.18Z"/><path class="cls-1" d="M238.36,137a90.27,90.27,0,0,0-3.69,16.7l-.67-.54-.23-1.17-.19,1.63-.38-.33-.32.86-.51-.39-.27-1.17-.76,1.44-.54-.8-.94,1.13-.66-1.49L227,154.53l-.4-1.39-.63,1.2-.11-.39-1,.43,0-.24-.5.5-.36-.66-.76.67-.79-1.06-1.71,1.48a96.2,96.2,0,0,1,4.38-19.48l.8,1.28,1.11-1.24.36.88,1.28-1.69.77,1.55,1.41-.86s-.26,1.07-.52,1.78l.29,1.16.6-.43c.3-1,.59-1.9.92-2.88l.8.88,1.31-1.37.18,1.74.86-1.34.58.91.92-1.24.72,1-.51,1.76.35.55.95-1.27Zm-2.62.16-.52-.86-1.3,2.08-.26-2.33-.7,1-.61-.66a58.34,58.34,0,0,0-1.75,6.28l-2.78.61a33,33,0,0,1,1.78-6.28l-.64.47-.65-1.17-1.39,2.28-.23-1.74-1,1.11-.49-.83a89.53,89.53,0,0,0-3.69,16.23l1-.81.51.73,1.15-2.8.29,2.17.7-1.1.24,1.82.41-.17a40.2,40.2,0,0,1,1.08-6l2.81-.62q-.68,2.91-1.1,5.86l.88-.74.41,1,.69-1.92.42,1.69.33.25,1-2.58.33,1.73.43.35a93.76,93.76,0,0,1,3.65-16.39Z"/><path class="cls-1" d="M250.93,137.1l-1.7,1.1,1.15.72-.74.75.42.68-3.86.51a74,74,0,0,0-2.44,11.52l-.72-.5-.95,1-.55-1.26-1.12,1.24-.38-.82-.69.91-.36-.26.13-.64-.37-.55-.79,1-1.08-.73c.62-3.32,1.12-6.68,1.91-10l-1.31.17.62-.9-2.71.36.81-1.55-.65-.73,1.33-.86-.62-.81.78-.29-.63-.19.26-1.51,13.19-1.75-.76,1.38,1.66.62-.8.57-.15.26ZM249.36,136l-1.28-.4.54-.92-11.38,1.51-.08.42,2,.58-1.84.71.56.71-1.37.76.58.47-.59.86,3.4-.45c-1,3.71-1.59,7.54-2.28,11.31l.17.11,1-1.24.5.69.78-.89.61,1.55.85-1.2.66.45a70.91,70.91,0,0,1,2.43-11.4l3.75-.5-.38-.6.69-.69-1.21-.74Z"/><line class="cls-2" x1="206.09" y1="51.19" x2="182.85" y2="59.43"/><line class="cls-2" x1="235.13" y1="40.9" x2="211.88" y2="49.14"/><polyline class="cls-2" points="188.68 22.38 211.76 14.1 211.77 14.1"/><polyline class="cls-2" points="217.62 11.99 245.76 1.9 258.24 32.71 240.9 38.85"/><line class="cls-2" x1="182.82" y1="24.48" x2="159.73" y2="32.76"/><polyline class="cls-2" points="177.06 61.48 175.88 61.9 158.03 68.23 158.02 68.23"/><polyline class="cls-2" points="146.31 62.39 129.9 43.46 153.88 34.86"/><polyline class="cls-2" points="144.62 68.94 124.05 45.56 123.85 45.63 110.38 51.16 121.04 79.21"/><line class="cls-2" x1="205.63" y1="62.59" x2="180.9" y2="65.51"/><polyline class="cls-2" points="241.04 58.4 259.35 56.23 262.16 81.57 234.08 84.7"/><line class="cls-2" x1="234.89" y1="59.13" x2="211.71" y2="61.87"/><polyline class="cls-2" points="158.02 68.23 158.03 68.23 174.76 66.25"/><polyline class="cls-2" points="121.04 79.21 123.02 97.04 137.79 95.4"/><line class="cls-2" x1="168.1" y1="92.03" x2="144.2" y2="94.69"/><line class="cls-2" x1="228.11" y1="85.36" x2="204.52" y2="87.98"/><line class="cls-2" x1="198.91" y1="88.6" x2="174.07" y2="91.37"/><rect class="cls-2" x="127.54" y="94.53" width="140" height="78.5" transform="translate(-13.57 22.64) rotate(-6.34)"/><line class="cls-2" x1="146.31" y1="62.39" x2="150.97" y2="67.76"/><polyline class="cls-2" points="159.73 32.76 182.2 58.68 182.21 58.68 182.6 59.14 182.85 59.43"/><polyline class="cls-2" points="153.88 34.86 176.28 60.33 176.41 60.48 177.06 61.48"/><polyline class="cls-2" points="182.82 24.48 205.45 50.21 206.09 51.19"/><line class="cls-2" x1="211.88" y1="49.14" x2="188.68" y2="22.38"/><polyline class="cls-2" points="211.76 14.1 211.77 14.1 234.5 39.94 235.13 40.9"/><line class="cls-2" x1="240.9" y1="38.85" x2="217.62" y2="11.99"/><line class="cls-2" x1="144.2" y1="94.69" x2="150.5" y2="67.87"/><polyline class="cls-2" points="137.79 95.4 137.82 95.31 143.47 73.39 144.39 69.84 144.62 68.94"/><line class="cls-2" x1="174.76" y1="66.25" x2="168.1" y2="92.03"/><line class="cls-2" x1="182.21" y1="58.68" x2="182.2" y2="58.68"/><line class="cls-2" x1="180.9" y1="65.51" x2="174.07" y2="91.37"/><line class="cls-2" x1="211.71" y1="61.87" x2="204.52" y2="87.98"/><line class="cls-2" x1="205.63" y1="62.59" x2="198.91" y2="88.6"/><line class="cls-2" x1="241.04" y1="58.4" x2="234.08" y2="84.7"/><line class="cls-2" x1="234.89" y1="59.13" x2="228.11" y2="85.36"/><line class="cls-3" x1="151.06" y1="67.87" x2="143.68" y2="67.87"/><line class="cls-3" x1="210.06" y1="67.87" x2="204.27" y2="67.87"/><path class="cls-3" d="M260.64,67.87H370.31A16.19,16.19,0,0,1,386.5,84.06v67.62a16.19,16.19,0,0,1-16.19,16.19H246.17"/><path class="cls-3" d="M116.73,67.87h-100A16.19,16.19,0,0,0,.5,84.06v67.62a16.19,16.19,0,0,0,16.19,16.19h114.2"/><line class="cls-3" x1="238.53" y1="67.87" x2="232.63" y2="67.87"/><line class="cls-3" x1="161.07" y1="67.87" x2="159.04" y2="67.87"/><line class="cls-3" x1="180.28" y1="67.87" x2="174.34" y2="67.87"/><polygon class="cls-4" points="271.82 108.59 310.04 99.7 297.3 128.74 271.82 108.59"/><line class="cls-4" x1="312.85" y1="145.48" x2="290.93" y2="150.81"/><line class="cls-4" x1="297.45" y1="128.59" x2="301.89" y2="148.14"/><path class="cls-4" d="M306.13,108.6a10.37,10.37,0,1,0-5.57-9.19,10.77,10.77,0,0,0,.28,2.43"/><path class="cls-4" d="M305,110.37h-2.4a5,5,0,0,0-3.51,1.43l-3,2.94a4.53,4.53,0,0,1-4.5,1.09l-2.66-.83a9.41,9.41,0,0,0-6.57.37l-.75.33"/><path class="cls-4" d="M112.6,101.07,80.75,92.33h0a1.83,1.83,0,0,0-.89,3.56h0L111,104.78l.74.14c2.6,0,3.09-2.16,1.33-3.7Z"/><polyline class="cls-4" points="106.67 85.37 99.26 88.33 96.89 96.63"/><path class="cls-4" d="M79.86,95.89,73.59,131a3.64,3.64,0,0,0,.49,2.56h0a3.64,3.64,0,0,0,2.08,1.57l18,5.13a3.67,3.67,0,0,0,2.77-.32l.21-.11a3.64,3.64,0,0,0,1.61-1.85l12.86-32.86"/><path class="cls-4" d="M84,114.1l3-1.49a.73.73,0,0,1,.54,0l1.18.39a.85.85,0,0,1,.48.41L91,116.64a.8.8,0,0,1,0,.59l-.38,1.11a.92.92,0,0,1-.45.54L87.6,120.3a.94.94,0,0,1-.7.07L85.75,120a1.34,1.34,0,0,1-.83-.66l-1.59-2.94a1.11,1.11,0,0,1-.07-.84l.34-1A.86.86,0,0,1,84,114.1Z"/><circle class="cls-5" cx="79.86" cy="121.37" r="1.04"/><circle class="cls-5" cx="94.67" cy="134.7" r="1.04"/><path class="cls-4" d="M82.86,126.76l3-1.49a.72.72,0,0,1,.54,0l1.18.39A.88.88,0,0,1,88,126l1.76,3.27a.72.72,0,0,1,0,.59L89.48,131a1,1,0,0,1-.45.54L86.43,133a.92.92,0,0,1-.69.07l-1.16-.33a1.4,1.4,0,0,1-.83-.66l-1.58-2.94a1.07,1.07,0,0,1-.07-.84l.33-1A.9.9,0,0,1,82.86,126.76Z"/><path class="cls-4" d="M90.57,121.13l3-1.49a.72.72,0,0,1,.54,0l1.18.39a.85.85,0,0,1,.48.41l1.76,3.27a.72.72,0,0,1,0,.59l-.37,1.11a.93.93,0,0,1-.45.54l-2.6,1.42a1,1,0,0,1-.69.08l-1.15-.34a1.34,1.34,0,0,1-.83-.66l-1.59-2.94a1.07,1.07,0,0,1-.07-.84l.34-1A.82.82,0,0,1,90.57,121.13Z"/><path class="cls-4" d="M78.53,106.7l1.27.85a4,4,0,0,0,3,.59l4.57-1a5.08,5.08,0,0,1,4.26,1.06l2.8,2.32a6,6,0,0,0,4.86,1.26l2.74-.51a5.25,5.25,0,0,1,4.46,1.24l1.34,1.25"/><polyline class="cls-4" points="54.6 122.25 56.23 148.47 31.35 154.4 21.42 130.55 20.39 127.73"/><line class="cls-4" x1="28.53" y1="124.62" x2="37.27" y2="152.62"/><line class="cls-4" x1="37.13" y1="122.85" x2="43.85" y2="151.42"/><line class="cls-4" x1="45.72" y1="120.77" x2="50.14" y2="149.92"/><line class="cls-4" x1="42.61" y1="123.88" x2="43.2" y2="126.55"/><line class="cls-4" x1="43.79" y1="130.4" x2="44.68" y2="135.73"/><line class="cls-4" x1="45.57" y1="143.14" x2="45.87" y2="144.92"/><line class="cls-4" x1="24.24" y1="128.33" x2="26.61" y2="133.96"/><line class="cls-4" x1="30.46" y1="143.44" x2="31.94" y2="146.99"/><path class="cls-4" d="M46.75,126c-.81-2.23-1.28-5.53.4-7.21a4.29,4.29,0,0,1,6.07,0c1.11,1.11,1.32,2.8,1.53,4.25"/><path class="cls-4" d="M37.51,124.48a4.3,4.3,0,0,0-8.42,1.66h0a4.68,4.68,0,0,0,.2.8"/><path class="cls-4" d="M38.45,127.77c-.81-2.23-1.29-5.53.39-7.21a4.3,4.3,0,0,1,6.08,0c1.11,1.11,1.31,2.8,1.53,4.25"/><path class="cls-4" d="M22.13,132.16c-1.25-2-2.4-5.15-1.11-7.14A4.29,4.29,0,0,1,27,123.76c1.32.86,1.87,2.46,2.38,3.84"/><path class="cls-4" d="M30.46,116.77s.3-2.07,2.07-2.07c0,0,.3-5,3.86-2.37,0,0,1.77-1.78,3.25,0"/><path class="cls-4" d="M39.35,116.77s.29-2.66,3.26-1.77c0,0,.89-3,3.85-.89"/><path class="cls-6" d="M21,125.37s-2.69-4.75,2.05-5.34c0,0-3.26-1.78-1.18-3.26,0,0-.89-4.44,2.67-3.26,0,0-.3-3.25,4.44-.88,0,0-3.26-3.56.89-4.45,0,0-1.19-6.52,3.55-2.66,0,0,1.19-3.86,3-1.19,0,0,3.85-5.33,3.85,2.07v1.19s1.77-1.19,1.77.59V110s1.49-5.93,3.86-1.48c0,0,5.92-4.45,3.55,3,0,0,5-2.67,3.26,2.37a2.68,2.68,0,0,1,.3,3.85"/><path class="cls-4" d="M13.12,114.76l1.78-1.64a2.08,2.08,0,0,1,2.54,2.21l-.9,1.71.59,2.22a1.64,1.64,0,0,1-2.51,1.26l-1.5-2L10.55,118a1.71,1.71,0,0,1-.09-2.9Z"/><path class="cls-4" d="M46.65,95.16l2.32.67a2.08,2.08,0,0,1-.56,3.31l-1.93.13-1.59,1.66a1.64,1.64,0,0,1-2.38-1.49l.89-2.3-.89-2.47a1.71,1.71,0,0,1,2.43-1.58Z"/><path class="cls-4" d="M23.35,104l.3-2.15a1.53,1.53,0,0,0-2.12-1.41L19.79,102l-1-.1a1.71,1.71,0,0,0-1.27,2.28l.18.78-.59,1.41c0,1,.74,2,1.66,1.56L21,107h.51a1.86,1.86,0,0,0,1.86-1.86V104Z"/><path class="cls-4" d="M58.61,102.55l.29-2.15A1.52,1.52,0,0,0,56.79,99l-1.74,1.49-1-.1a1.72,1.72,0,0,0-1.27,2.28l.19.78-.6,1.41c0,1,.75,2,1.66,1.56l2.19-.89h.52a1.87,1.87,0,0,0,1.86-1.86v-1.11Z"/><ellipse class="cls-4" cx="355.54" cy="103.72" rx="8.7" ry="23.76" transform="translate(151.35 412.71) rotate(-72.81)"/><path class="cls-4" d="M380.53,115.16a6.31,6.31,0,0,1-1.72,2.7c-3.12,3-9.64,4.2-17.4,3.34a53.89,53.89,0,0,1-10-2.12,55.41,55.41,0,0,1-9.13-3.73c-8.88-4.65-14.22-11-12.68-15.95,2-6.53,15.05-8.28,29.12-3.93S382.54,108.64,380.53,115.16Z"/><path class="cls-4" d="M361.41,121.2a53.89,53.89,0,0,1-10-2.12,55.41,55.41,0,0,1-9.13-3.73"/><path class="cls-4" d="M372.17,134.32c-1.67,5.41-13.29,6.62-25.95,2.7s-21.56-11.48-19.89-16.89a4.44,4.44,0,0,1,.58-1.2,5.69,5.69,0,0,0,3.73,4.24c5,1.78,6.22,2.37,11.25-.59,0,0,.3,5,6.52,7.4s9.19-3.25,9.19-3.25a9.32,9.32,0,0,0,7.4,6.51,8.6,8.6,0,0,0,7.07-2.06A5.13,5.13,0,0,1,372.17,134.32Z"/><path class="cls-4" d="M378.81,117.86l1,1.16a8.79,8.79,0,0,1-5.93,10.08,9.52,9.52,0,0,1-1.82,2.08,8.6,8.6,0,0,1-7.07,2.06,9.32,9.32,0,0,1-7.4-6.51s-3,5.62-9.19,3.25-6.52-7.4-6.52-7.4c-5,3-6.22,2.37-11.25.59a5.69,5.69,0,0,1-3.73-4.24,9.9,9.9,0,0,1-.12-3.76c-5.93-7.11,2.07-11.55,2.07-11.55"/><path class="cls-4" d="M334.78,111s.3,10.08,9.48,6.23"/><path class="cls-4" d="M356.41,121.1s9.78,8.29,14.52.29"/><line class="cls-4" x1="344.12" y1="97.54" x2="338.78" y2="101.1"/><line class="cls-4" x1="349.75" y1="99.62" x2="343.23" y2="104.36"/><line class="cls-4" x1="359.82" y1="99.62" x2="350.63" y2="106.43"/><line class="cls-4" x1="366.93" y1="101.99" x2="358.04" y2="108.51"/><line class="cls-4" x1="371.37" y1="105.25" x2="366.04" y2="109.1"/><line class="cls-4" x1="355.67" y1="104.36" x2="349.75" y2="88.95"/><line class="cls-4" x1="347.97" y1="84.8" x2="346.49" y2="80.66"/><ellipse class="cls-4" cx="348.12" cy="85.69" rx="5.48" ry="3.56" transform="translate(-1.14 166.63) rotate(-26.88)"/></g></g></svg>