<svg xmlns="http://www.w3.org/2000/svg" viewBox="0 0 387 182.18"><defs><style>.cls-1{font-size:27px;font-family:CCMonsterMashOutline;}.cls-1,.cls-6{fill:#fff;}.cls-2{letter-spacing:-0.06em;}.cls-3,.cls-4,.cls-5,.cls-7{fill:none;}.cls-3,.cls-4,.cls-5,.cls-6,.cls-7{stroke:#fff;}.cls-3,.cls-4{stroke-linecap:round;}.cls-3,.cls-4,.cls-5,.cls-6{stroke-miterlimit:10;}.cls-3{stroke-width:3px;}.cls-5,.cls-6,.cls-7{stroke-width:2px;}.cls-7{stroke-linejoin:bevel;}</style></defs><title>Fichier 6</title><g id="Calque_2" data-name="Calque 2"><g id="Calque_1-2" data-name="Calque 1"><text class="cls-1" transform="translate(142.91 136.25) rotate(-7.58)"><tspan class="cls-2">R</tspan><tspan x="13.53" y="0">andom </tspan><tspan x="-9.1" y="27.77" xml:space="preserve">     Night</tspan></text><line class="cls-3" x1="206.09" y1="51.19" x2="182.85" y2="59.43"/><line class="cls-3" x1="235.13" y1="40.9" x2="211.88" y2="49.14"/><polyline class="cls-3" points="188.68 22.38 211.76 14.1 211.77 14.1"/><polyline class="cls-3" points="217.62 11.99 245.76 1.9 258.24 32.71 240.9 38.85"/><line class="cls-3" x1="182.82" y1="24.48" x2="159.73" y2="32.76"/><polyline class="cls-3" points="177.06 61.48 175.88 61.9 158.03 68.23 158.02 68.23"/><polyline class="cls-3" points="146.31 62.39 129.9 43.46 153.88 34.86"/><polyline class="cls-3" points="144.62 68.94 124.05 45.56 123.85 45.63 110.38 51.16 121.04 79.21"/><line class="cls-3" x1="205.63" y1="62.59" x2="180.9" y2="65.51"/><polyline class="cls-3" points="241.04 58.4 259.35 56.23 262.16 81.57 234.08 84.7"/><line class="cls-3" x1="234.89" y1="59.13" x2="211.71" y2="61.87"/><polyline class="cls-3" points="158.02 68.23 158.03 68.23 174.76 66.25"/><polyline class="cls-3" points="121.04 79.21 123.02 97.04 137.79 95.4"/><line class="cls-3" x1="168.1" y1="92.03" x2="144.2" y2="94.69"/><line class="cls-3" x1="228.11" y1="85.36" x2="204.52" y2="87.98"/><line class="cls-3" x1="198.91" y1="88.6" x2="174.07" y2="91.37"/><rect class="cls-3" x="127.54" y="94.53" width="140" height="78.5" transform="translate(-13.57 22.64) rotate(-6.34)"/><line class="cls-3" x1="146.31" y1="62.39" x2="150.97" y2="67.76"/><polyline class="cls-3" points="159.73 32.76 182.2 58.68 182.21 58.68 182.6 59.14 182.85 59.43"/><polyline class="cls-3" points="153.88 34.86 176.28 60.33 176.41 60.48 177.06 61.48"/><polyline class="cls-3" points="182.82 24.48 205.45 50.21 206.09 51.19"/><line class="cls-3" x1="211.88" y1="49.14" x2="188.68" y2="22.38"/><polyline class="cls-3" points="211.76 14.1 211.77 14.1 234.5 39.94 235.13 40.9"/><line class="cls-3" x1="240.9" y1="38.85" x2="217.62" y2="11.99"/><line class="cls-3" x1="144.2" y1="94.69" x2="150.5" y2="67.87"/><polyline class="cls-3" points="137.79 95.4 137.82 95.31 143.47 73.39 144.39 69.84 144.62 68.94"/><line class="cls-3" x1="174.76" y1="66.25" x2="168.1" y2="92.03"/><line class="cls-3" x1="182.21" y1="58.68" x2="182.2" y2="58.68"/><line class="cls-3" x1="180.9" y1="65.51" x2="174.07" y2="91.37"/><line class="cls-3" x1="211.71" y1="61.87" x2="204.52" y2="87.98"/><line class="cls-3" x1="205.63" y1="62.59" x2="198.91" y2="88.6"/><line class="cls-3" x1="241.04" y1="58.4" x2="234.08" y2="84.7"/><line class="cls-3" x1="234.89" y1="59.13" x2="228.11" y2="85.36"/><line class="cls-4" x1="151.06" y1="67.87" x2="143.68" y2="67.87"/><line class="cls-4" x1="210.06" y1="67.87" x2="204.27" y2="67.87"/><path class="cls-4" d="M260.64,67.87H370.31A16.19,16.19,0,0,1,386.5,84.06v67.62a16.19,16.19,0,0,1-16.19,16.19H246.17"/><path class="cls-4" d="M116.73,67.87h-100A16.19,16.19,0,0,0,.5,84.06v67.62a16.19,16.19,0,0,0,16.19,16.19h114.2"/><line class="cls-4" x1="238.53" y1="67.87" x2="232.63" y2="67.87"/><line class="cls-4" x1="161.07" y1="67.87" x2="159.04" y2="67.87"/><line class="cls-4" x1="180.28" y1="67.87" x2="174.34" y2="67.87"/><polygon class="cls-5" points="271.82 108.59 310.04 99.7 297.3 128.74 271.82 108.59"/><line class="cls-5" x1="312.85" y1="145.48" x2="290.93" y2="150.81"/><line class="cls-5" x1="297.45" y1="128.59" x2="301.89" y2="148.14"/><path class="cls-5" d="M306.13,108.6a10.37,10.37,0,1,0-5.57-9.19,10.77,10.77,0,0,0,.28,2.43"/><path class="cls-5" d="M305,110.37h-2.4a5,5,0,0,0-3.51,1.43l-3,2.94a4.53,4.53,0,0,1-4.5,1.09l-2.66-.83a9.41,9.41,0,0,0-6.57.37l-.75.33"/><path class="cls-5" d="M112.6,101.07,80.75,92.33h0a1.83,1.83,0,0,0-.89,3.56h0L111,104.78l.74.14c2.6,0,3.09-2.16,1.33-3.7Z"/><polyline class="cls-5" points="106.67 85.37 99.26 88.33 96.89 96.63"/><path class="cls-5" d="M79.86,95.89,73.59,131a3.64,3.64,0,0,0,.49,2.56h0a3.64,3.64,0,0,0,2.08,1.57l18,5.13a3.67,3.67,0,0,0,2.77-.32l.21-.11a3.64,3.64,0,0,0,1.61-1.85l12.86-32.86"/><path class="cls-5" d="M84,114.1l3-1.49a.73.73,0,0,1,.54,0l1.18.39a.85.85,0,0,1,.48.41L91,116.64a.8.8,0,0,1,0,.59l-.38,1.11a.92.92,0,0,1-.45.54L87.6,120.3a.94.94,0,0,1-.7.07L85.75,120a1.34,1.34,0,0,1-.83-.66l-1.59-2.94a1.11,1.11,0,0,1-.07-.84l.34-1A.86.86,0,0,1,84,114.1Z"/><circle class="cls-6" cx="79.86" cy="121.37" r="1.04"/><circle class="cls-6" cx="94.67" cy="134.7" r="1.04"/><path class="cls-5" d="M82.86,126.76l3-1.49a.72.72,0,0,1,.54,0l1.18.39A.88.88,0,0,1,88,126l1.76,3.27a.72.72,0,0,1,0,.59L89.48,131a1,1,0,0,1-.45.54L86.43,133a.92.92,0,0,1-.69.07l-1.16-.33a1.4,1.4,0,0,1-.83-.66l-1.58-2.94a1.07,1.07,0,0,1-.07-.84l.33-1A.9.9,0,0,1,82.86,126.76Z"/><path class="cls-5" d="M90.57,121.13l3-1.49a.72.72,0,0,1,.54,0l1.18.39a.85.85,0,0,1,.48.41l1.76,3.27a.72.72,0,0,1,0,.59l-.37,1.11a.93.93,0,0,1-.45.54l-2.6,1.42a1,1,0,0,1-.69.08l-1.15-.34a1.34,1.34,0,0,1-.83-.66l-1.59-2.94a1.07,1.07,0,0,1-.07-.84l.34-1A.82.82,0,0,1,90.57,121.13Z"/><path class="cls-5" d="M78.53,106.7l1.27.85a4,4,0,0,0,3,.59l4.57-1a5.08,5.08,0,0,1,4.26,1.06l2.8,2.32a6,6,0,0,0,4.86,1.26l2.74-.51a5.25,5.25,0,0,1,4.46,1.24l1.34,1.25"/><polyline class="cls-5" points="54.6 122.25 56.23 148.47 31.35 154.4 21.42 130.55 20.39 127.73"/><line class="cls-5" x1="28.53" y1="124.62" x2="37.27" y2="152.62"/><line class="cls-5" x1="37.13" y1="122.85" x2="43.85" y2="151.42"/><line class="cls-5" x1="45.72" y1="120.77" x2="50.14" y2="149.92"/><line class="cls-5" x1="42.61" y1="123.88" x2="43.2" y2="126.55"/><line class="cls-5" x1="43.79" y1="130.4" x2="44.68" y2="135.73"/><line class="cls-5" x1="45.57" y1="143.14" x2="45.87" y2="144.92"/><line class="cls-5" x1="24.24" y1="128.33" x2="26.61" y2="133.96"/><line class="cls-5" x1="30.46" y1="143.44" x2="31.94" y2="146.99"/><path class="cls-5" d="M46.75,126c-.81-2.23-1.28-5.53.4-7.21a4.29,4.29,0,0,1,6.07,0c1.11,1.11,1.32,2.8,1.53,4.25"/><path class="cls-5" d="M37.51,124.48a4.3,4.3,0,0,0-8.42,1.66h0a4.68,4.68,0,0,0,.2.8"/><path class="cls-5" d="M38.45,127.77c-.81-2.23-1.29-5.53.39-7.21a4.3,4.3,0,0,1,6.08,0c1.11,1.11,1.31,2.8,1.53,4.25"/><path class="cls-5" d="M22.13,132.16c-1.25-2-2.4-5.15-1.11-7.14A4.29,4.29,0,0,1,27,123.76c1.32.86,1.87,2.46,2.38,3.84"/><path class="cls-5" d="M30.46,116.77s.3-2.07,2.07-2.07c0,0,.3-5,3.86-2.37,0,0,1.77-1.78,3.25,0"/><path class="cls-5" d="M39.35,116.77s.29-2.66,3.26-1.77c0,0,.89-3,3.85-.89"/><path class="cls-7" d="M21,125.37s-2.69-4.75,2.05-5.34c0,0-3.26-1.78-1.18-3.26,0,0-.89-4.44,2.67-3.26,0,0-.3-3.25,4.44-.88,0,0-3.26-3.56.89-4.45,0,0-1.19-6.52,3.55-2.66,0,0,1.19-3.86,3-1.19,0,0,3.85-5.33,3.85,2.07v1.19s1.77-1.19,1.77.59V110s1.49-5.93,3.86-1.48c0,0,5.92-4.45,3.55,3,0,0,5-2.67,3.26,2.37a2.68,2.68,0,0,1,.3,3.85"/><path class="cls-5" d="M13.12,114.76l1.78-1.64a2.08,2.08,0,0,1,2.54,2.21l-.9,1.71.59,2.22a1.64,1.64,0,0,1-2.51,1.26l-1.5-2L10.55,118a1.71,1.71,0,0,1-.09-2.9Z"/><path class="cls-5" d="M46.65,95.16l2.32.67a2.08,2.08,0,0,1-.56,3.31l-1.93.13-1.59,1.66a1.64,1.64,0,0,1-2.38-1.49l.89-2.3-.89-2.47a1.71,1.71,0,0,1,2.43-1.58Z"/><path class="cls-5" d="M23.35,104l.3-2.15a1.53,1.53,0,0,0-2.12-1.41L19.79,102l-1-.1a1.71,1.71,0,0,0-1.27,2.28l.18.78-.59,1.41c0,1,.74,2,1.66,1.56L21,107h.51a1.86,1.86,0,0,0,1.86-1.86V104Z"/><path class="cls-5" d="M58.61,102.55l.29-2.15A1.52,1.52,0,0,0,56.79,99l-1.74,1.49-1-.1a1.72,1.72,0,0,0-1.27,2.28l.19.78-.6,1.41c0,1,.75,2,1.66,1.56l2.19-.89h.52a1.87,1.87,0,0,0,1.86-1.86v-1.11Z"/><ellipse class="cls-5" cx="355.54" cy="103.72" rx="8.7" ry="23.76" transform="translate(151.35 412.71) rotate(-72.81)"/><path class="cls-5" d="M380.53,115.16a6.31,6.31,0,0,1-1.72,2.7c-3.12,3-9.64,4.2-17.4,3.34a53.89,53.89,0,0,1-10-2.12,55.41,55.41,0,0,1-9.13-3.73c-8.88-4.65-14.22-11-12.68-15.95,2-6.53,15.05-8.28,29.12-3.93S382.54,108.64,380.53,115.16Z"/><path class="cls-5" d="M361.41,121.2a53.89,53.89,0,0,1-10-2.12,55.41,55.41,0,0,1-9.13-3.73"/><path class="cls-5" d="M372.17,134.32c-1.67,5.41-13.29,6.62-25.95,2.7s-21.56-11.48-19.89-16.89a4.44,4.44,0,0,1,.58-1.2,5.69,5.69,0,0,0,3.73,4.24c5,1.78,6.22,2.37,11.25-.59,0,0,.3,5,6.52,7.4s9.19-3.25,9.19-3.25a9.32,9.32,0,0,0,7.4,6.51,8.6,8.6,0,0,0,7.07-2.06A5.13,5.13,0,0,1,372.17,134.32Z"/><path class="cls-5" d="M378.81,117.86l1,1.16a8.79,8.79,0,0,1-5.93,10.08,9.52,9.52,0,0,1-1.82,2.08,8.6,8.6,0,0,1-7.07,2.06,9.32,9.32,0,0,1-7.4-6.51s-3,5.62-9.19,3.25-6.52-7.4-6.52-7.4c-5,3-6.22,2.37-11.25.59a5.69,5.69,0,0,1-3.73-4.24,9.9,9.9,0,0,1-.12-3.76c-5.93-7.11,2.07-11.55,2.07-11.55"/><path class="cls-5" d="M334.78,111s.3,10.08,9.48,6.23"/><path class="cls-5" d="M356.41,121.1s9.78,8.29,14.52.29"/><line class="cls-5" x1="344.12" y1="97.54" x2="338.78" y2="101.1"/><line class="cls-5" x1="349.75" y1="99.62" x2="343.23" y2="104.36"/><line class="cls-5" x1="359.82" y1="99.62" x2="350.63" y2="106.43"/><line class="cls-5" x1="366.93" y1="101.99" x2="358.04" y2="108.51"/><line class="cls-5" x1="371.37" y1="105.25" x2="366.04" y2="109.1"/><line class="cls-5" x1="355.67" y1="104.36" x2="349.75" y2="88.95"/><line class="cls-5" x1="347.97" y1="84.8" x2="346.49" y2="80.66"/><ellipse class="cls-5" cx="348.12" cy="85.69" rx="5.48" ry="3.56" transform="translate(-1.14 166.63) rotate(-26.88)"/></g></g></svg>